<svg id="Layer_1" data-name="Layer 1" xmlns="http://www.w3.org/2000/svg" width="500" height="500" viewBox="0 0 500 500"><defs><style>.cls-1{fill:#fff;}</style></defs><path class="cls-1" d="M452.16,301.61l-54.61,18.53-55.61-32.06,72.14-24.55a15,15,0,0,0,0-27.06l-72.14-24.55,55.61-32.06,54.61,18.53c6.52,2.51,14-1.5,16-8,2.51-6.51-1.5-14-8-16l-33.57-11.53,31.56-18a12.8,12.8,0,0,0-13-22l-31.57,18,7-34.57a12.77,12.77,0,1,0-25.05-5l-11,56.61-55.61,32.07,14.53-74.65c1-6-2-12-7.51-14-4.51-3.51-11-3-15.54,1l-57.11,50.1V87.67l43.59-38.08c5.51-4.51,6-12.52,1-18-4.51-5.52-12.53-6-18-1L263.28,53.6V17.53a13,13,0,1,0-26.06,0V53.6l-26.55-23c-5.51-4.51-13.53-4-18,1a13.16,13.16,0,0,0,1,18l43.58,38.08V152.3l-57.11-50.6a12.83,12.83,0,0,0-15.53-1,12.78,12.78,0,0,0-7.52,14l14.53,75.16L116,157.81,105,101.2a12.77,12.77,0,1,0-25,5l7,34.57L54.85,122.24a12.8,12.8,0,1,0-13,22l31.56,18L39.82,173.84c-6.51,2.51-10.52,9.52-8,16s9.51,10.52,16,8l55.11-18,55.61,32.06L86.42,236.47a15,15,0,0,0,0,27.06l72.14,24.55-7.51,4.51L103,320.14,48.34,301.61c-6.51-2.51-14,1.5-16,8s1.5,14,8,16l33.57,11.53-31.56,18a12.8,12.8,0,0,0,13,22.05l31.57-18-7,34.57a12.77,12.77,0,0,0,25,5l11-56.61,55.61-32.07-14.53,74.65c-1,6,2,12,7.52,14,4.51,3.51,11,3,15.53-1l57.11-50.1v64.63l-43.58,38.08c-5.52,4.51-6,12.52-1,18,4.51,5.52,12.53,6,18,1l26.55-23.05v36.07a13,13,0,1,0,26.06,0V446.4l26.55,23.05c5.51,4.51,13.53,4,18-1,4.51-5.51,4-13.52-1-18l-43.59-38.08V348.2l57.11,50.1a14.55,14.55,0,0,0,23.05-13l-14.53-75.16,55.61,32.07,11,56.61a12.77,12.77,0,1,0,25.05-5l-7-34.57,31.57,18a12.8,12.8,0,0,0,13-22.05l-31.56-18,33.57-11.53c6.51-2.5,10.52-9.52,8-16S458.68,299.1,452.16,301.61ZM127,250l61.12-21,36.58,21-36.58,21Zm110.22,64.13-48.59,42.59,12.52-63.63,36.07-21Zm0-86.17-36.07-21.05-12.52-63.63,48.59,42.59Zm26.06-42.09,48.6-42.59-12.53,63.63L263.28,228Zm0,128.26V272l36.07,21,12.53,63.63ZM312.38,271,275.8,250l36.58-21,61.12,21Z"/></svg>